<mxfile host="app.diagrams.net" modified="2023-10-15T14:39:22.319Z" agent="Mozilla/5.0 (Windows NT 10.0; Win64; x64; rv:109.0) Gecko/20100101 Firefox/118.0" etag="gtTM2e6Or4ivtTGgRc9M" version="22.0.4" type="github">
  <diagram name="Página-1" id="JHmkv3kckkZ9OcQ7Dxxi">
    <mxGraphModel dx="1430" dy="818" grid="1" gridSize="10" guides="1" tooltips="1" connect="1" arrows="1" fold="1" page="1" pageScale="1" pageWidth="827" pageHeight="1169" math="0" shadow="0">
      <root>
        <mxCell id="0" />
        <mxCell id="1" parent="0" />
        <mxCell id="evYnOkPTChKPRlf0-Ylp-1" value="Proyecto" style="swimlane;fontStyle=0;childLayout=stackLayout;horizontal=1;startSize=26;horizontalStack=0;resizeParent=1;resizeParentMax=0;resizeLast=0;collapsible=1;marginBottom=0;align=center;fontSize=14;" vertex="1" parent="1">
          <mxGeometry x="120" y="180" width="160" height="146" as="geometry" />
        </mxCell>
        <mxCell id="evYnOkPTChKPRlf0-Ylp-22" value="&lt;u&gt;id&lt;/u&gt;" style="text;strokeColor=none;fillColor=none;spacingLeft=4;spacingRight=4;overflow=hidden;rotatable=0;points=[[0,0.5],[1,0.5]];portConstraint=eastwest;fontSize=12;whiteSpace=wrap;html=1;" vertex="1" parent="evYnOkPTChKPRlf0-Ylp-1">
          <mxGeometry y="26" width="160" height="30" as="geometry" />
        </mxCell>
        <mxCell id="evYnOkPTChKPRlf0-Ylp-2" value="fecha_inicio" style="text;strokeColor=none;fillColor=none;spacingLeft=4;spacingRight=4;overflow=hidden;rotatable=0;points=[[0,0.5],[1,0.5]];portConstraint=eastwest;fontSize=12;whiteSpace=wrap;html=1;" vertex="1" parent="evYnOkPTChKPRlf0-Ylp-1">
          <mxGeometry y="56" width="160" height="30" as="geometry" />
        </mxCell>
        <mxCell id="evYnOkPTChKPRlf0-Ylp-3" value="fecha_final" style="text;strokeColor=none;fillColor=none;spacingLeft=4;spacingRight=4;overflow=hidden;rotatable=0;points=[[0,0.5],[1,0.5]];portConstraint=eastwest;fontSize=12;whiteSpace=wrap;html=1;" vertex="1" parent="evYnOkPTChKPRlf0-Ylp-1">
          <mxGeometry y="86" width="160" height="30" as="geometry" />
        </mxCell>
        <mxCell id="evYnOkPTChKPRlf0-Ylp-4" value="fecha_prevista" style="text;strokeColor=none;fillColor=none;spacingLeft=4;spacingRight=4;overflow=hidden;rotatable=0;points=[[0,0.5],[1,0.5]];portConstraint=eastwest;fontSize=12;whiteSpace=wrap;html=1;" vertex="1" parent="evYnOkPTChKPRlf0-Ylp-1">
          <mxGeometry y="116" width="160" height="30" as="geometry" />
        </mxCell>
        <mxCell id="evYnOkPTChKPRlf0-Ylp-5" value="Empresa" style="swimlane;fontStyle=0;childLayout=stackLayout;horizontal=1;startSize=26;horizontalStack=0;resizeParent=1;resizeParentMax=0;resizeLast=0;collapsible=1;marginBottom=0;align=center;fontSize=14;" vertex="1" parent="1">
          <mxGeometry x="650" y="165" width="160" height="176" as="geometry" />
        </mxCell>
        <mxCell id="evYnOkPTChKPRlf0-Ylp-18" value="&lt;u&gt;cod_interno&lt;/u&gt;" style="text;strokeColor=none;fillColor=none;spacingLeft=4;spacingRight=4;overflow=hidden;rotatable=0;points=[[0,0.5],[1,0.5]];portConstraint=eastwest;fontSize=12;whiteSpace=wrap;html=1;" vertex="1" parent="evYnOkPTChKPRlf0-Ylp-5">
          <mxGeometry y="26" width="160" height="30" as="geometry" />
        </mxCell>
        <mxCell id="evYnOkPTChKPRlf0-Ylp-7" value="CIF" style="text;strokeColor=none;fillColor=none;spacingLeft=4;spacingRight=4;overflow=hidden;rotatable=0;points=[[0,0.5],[1,0.5]];portConstraint=eastwest;fontSize=12;whiteSpace=wrap;html=1;" vertex="1" parent="evYnOkPTChKPRlf0-Ylp-5">
          <mxGeometry y="56" width="160" height="30" as="geometry" />
        </mxCell>
        <mxCell id="evYnOkPTChKPRlf0-Ylp-6" value="nombre" style="text;strokeColor=none;fillColor=none;spacingLeft=4;spacingRight=4;overflow=hidden;rotatable=0;points=[[0,0.5],[1,0.5]];portConstraint=eastwest;fontSize=12;whiteSpace=wrap;html=1;" vertex="1" parent="evYnOkPTChKPRlf0-Ylp-5">
          <mxGeometry y="86" width="160" height="30" as="geometry" />
        </mxCell>
        <mxCell id="evYnOkPTChKPRlf0-Ylp-17" value="direccion" style="text;strokeColor=none;fillColor=none;spacingLeft=4;spacingRight=4;overflow=hidden;rotatable=0;points=[[0,0.5],[1,0.5]];portConstraint=eastwest;fontSize=12;whiteSpace=wrap;html=1;" vertex="1" parent="evYnOkPTChKPRlf0-Ylp-5">
          <mxGeometry y="116" width="160" height="30" as="geometry" />
        </mxCell>
        <mxCell id="evYnOkPTChKPRlf0-Ylp-8" value="telefono" style="text;strokeColor=none;fillColor=none;spacingLeft=4;spacingRight=4;overflow=hidden;rotatable=0;points=[[0,0.5],[1,0.5]];portConstraint=eastwest;fontSize=12;whiteSpace=wrap;html=1;" vertex="1" parent="evYnOkPTChKPRlf0-Ylp-5">
          <mxGeometry y="146" width="160" height="30" as="geometry" />
        </mxCell>
        <mxCell id="evYnOkPTChKPRlf0-Ylp-9" value="Trabajador" style="swimlane;fontStyle=0;childLayout=stackLayout;horizontal=1;startSize=26;horizontalStack=0;resizeParent=1;resizeParentMax=0;resizeLast=0;collapsible=1;marginBottom=0;align=center;fontSize=14;" vertex="1" parent="1">
          <mxGeometry x="120" y="560" width="160" height="146" as="geometry" />
        </mxCell>
        <mxCell id="evYnOkPTChKPRlf0-Ylp-20" value="&lt;u&gt;cod_trabajador&lt;/u&gt;" style="text;strokeColor=none;fillColor=none;spacingLeft=4;spacingRight=4;overflow=hidden;rotatable=0;points=[[0,0.5],[1,0.5]];portConstraint=eastwest;fontSize=12;whiteSpace=wrap;html=1;" vertex="1" parent="evYnOkPTChKPRlf0-Ylp-9">
          <mxGeometry y="26" width="160" height="30" as="geometry" />
        </mxCell>
        <mxCell id="evYnOkPTChKPRlf0-Ylp-10" value="nombre" style="text;strokeColor=none;fillColor=none;spacingLeft=4;spacingRight=4;overflow=hidden;rotatable=0;points=[[0,0.5],[1,0.5]];portConstraint=eastwest;fontSize=12;whiteSpace=wrap;html=1;" vertex="1" parent="evYnOkPTChKPRlf0-Ylp-9">
          <mxGeometry y="56" width="160" height="30" as="geometry" />
        </mxCell>
        <mxCell id="evYnOkPTChKPRlf0-Ylp-11" value="DNI" style="text;strokeColor=none;fillColor=none;spacingLeft=4;spacingRight=4;overflow=hidden;rotatable=0;points=[[0,0.5],[1,0.5]];portConstraint=eastwest;fontSize=12;whiteSpace=wrap;html=1;" vertex="1" parent="evYnOkPTChKPRlf0-Ylp-9">
          <mxGeometry y="86" width="160" height="30" as="geometry" />
        </mxCell>
        <mxCell id="evYnOkPTChKPRlf0-Ylp-19" value="apellido" style="text;strokeColor=none;fillColor=none;spacingLeft=4;spacingRight=4;overflow=hidden;rotatable=0;points=[[0,0.5],[1,0.5]];portConstraint=eastwest;fontSize=12;whiteSpace=wrap;html=1;" vertex="1" parent="evYnOkPTChKPRlf0-Ylp-9">
          <mxGeometry y="116" width="160" height="30" as="geometry" />
        </mxCell>
        <mxCell id="evYnOkPTChKPRlf0-Ylp-29" style="edgeStyle=orthogonalEdgeStyle;rounded=0;orthogonalLoop=1;jettySize=auto;html=1;exitX=0;exitY=0.5;exitDx=0;exitDy=0;endArrow=ERoneToMany;endFill=0;" edge="1" parent="1" source="evYnOkPTChKPRlf0-Ylp-23" target="evYnOkPTChKPRlf0-Ylp-1">
          <mxGeometry relative="1" as="geometry" />
        </mxCell>
        <mxCell id="evYnOkPTChKPRlf0-Ylp-30" style="edgeStyle=orthogonalEdgeStyle;rounded=0;orthogonalLoop=1;jettySize=auto;html=1;exitX=1;exitY=0.5;exitDx=0;exitDy=0;endArrow=ERmandOne;endFill=0;" edge="1" parent="1" source="evYnOkPTChKPRlf0-Ylp-23" target="evYnOkPTChKPRlf0-Ylp-5">
          <mxGeometry relative="1" as="geometry" />
        </mxCell>
        <mxCell id="evYnOkPTChKPRlf0-Ylp-23" value="Crear" style="shape=rhombus;perimeter=rhombusPerimeter;whiteSpace=wrap;html=1;align=center;" vertex="1" parent="1">
          <mxGeometry x="400" y="223" width="120" height="60" as="geometry" />
        </mxCell>
        <mxCell id="evYnOkPTChKPRlf0-Ylp-26" style="edgeStyle=orthogonalEdgeStyle;rounded=0;orthogonalLoop=1;jettySize=auto;html=1;exitX=0.5;exitY=0;exitDx=0;exitDy=0;endArrow=ERoneToMany;endFill=0;" edge="1" parent="1" source="evYnOkPTChKPRlf0-Ylp-24" target="evYnOkPTChKPRlf0-Ylp-1">
          <mxGeometry relative="1" as="geometry" />
        </mxCell>
        <mxCell id="evYnOkPTChKPRlf0-Ylp-27" style="edgeStyle=orthogonalEdgeStyle;rounded=0;orthogonalLoop=1;jettySize=auto;html=1;exitX=0.5;exitY=1;exitDx=0;exitDy=0;endArrow=ERzeroToMany;endFill=0;" edge="1" parent="1" source="evYnOkPTChKPRlf0-Ylp-24" target="evYnOkPTChKPRlf0-Ylp-9">
          <mxGeometry relative="1" as="geometry" />
        </mxCell>
        <mxCell id="evYnOkPTChKPRlf0-Ylp-38" style="edgeStyle=orthogonalEdgeStyle;rounded=0;orthogonalLoop=1;jettySize=auto;html=1;exitX=1;exitY=0.5;exitDx=0;exitDy=0;endArrow=ERmandOne;endFill=0;" edge="1" parent="1" source="evYnOkPTChKPRlf0-Ylp-24" target="evYnOkPTChKPRlf0-Ylp-32">
          <mxGeometry relative="1" as="geometry" />
        </mxCell>
        <mxCell id="evYnOkPTChKPRlf0-Ylp-24" value="Realiza" style="shape=rhombus;perimeter=rhombusPerimeter;whiteSpace=wrap;html=1;align=center;" vertex="1" parent="1">
          <mxGeometry x="140" y="400" width="120" height="60" as="geometry" />
        </mxCell>
        <mxCell id="evYnOkPTChKPRlf0-Ylp-32" value="Profesión" style="swimlane;fontStyle=0;childLayout=stackLayout;horizontal=1;startSize=26;horizontalStack=0;resizeParent=1;resizeParentMax=0;resizeLast=0;collapsible=1;marginBottom=0;align=center;fontSize=14;" vertex="1" parent="1">
          <mxGeometry x="360" y="387" width="160" height="86" as="geometry" />
        </mxCell>
        <mxCell id="evYnOkPTChKPRlf0-Ylp-34" value="cod_profesion" style="text;strokeColor=none;fillColor=none;spacingLeft=4;spacingRight=4;overflow=hidden;rotatable=0;points=[[0,0.5],[1,0.5]];portConstraint=eastwest;fontSize=12;whiteSpace=wrap;html=1;" vertex="1" parent="evYnOkPTChKPRlf0-Ylp-32">
          <mxGeometry y="26" width="160" height="30" as="geometry" />
        </mxCell>
        <mxCell id="evYnOkPTChKPRlf0-Ylp-33" value="nombre" style="text;strokeColor=none;fillColor=none;spacingLeft=4;spacingRight=4;overflow=hidden;rotatable=0;points=[[0,0.5],[1,0.5]];portConstraint=eastwest;fontSize=12;whiteSpace=wrap;html=1;" vertex="1" parent="evYnOkPTChKPRlf0-Ylp-32">
          <mxGeometry y="56" width="160" height="30" as="geometry" />
        </mxCell>
      </root>
    </mxGraphModel>
  </diagram>
</mxfile>
